<svg width="65" height="50" viewBox="0 0 65 50" fill="none" xmlns="http://www.w3.org/2000/svg">
<path opacity="0.2" d="M13.4024 13.6076C13.997 11.993 15.5205 10.9223 17.2232 10.9223H59.1292C61.9726 10.9223 63.9429 13.7932 62.95 16.4894L51.598 47.3147C51.0034 48.9293 49.4799 50 47.7772 50H5.87118C3.02779 50 1.05746 47.1291 2.0504 44.4328L13.4024 13.6076Z" fill="white"/>
<path opacity="0.4" d="M8.88764 9.30376C9.30042 7.41361 10.9562 6.06793 12.8691 6.06793H55.1262C57.7328 6.06793 59.6701 8.50892 59.1076 11.0845L51.3157 46.7641C50.9029 48.6543 49.2472 50 47.3343 50H5.07718C2.47057 50 0.533277 47.559 1.09575 44.9834L8.88764 9.30376Z" fill="white"/>
<path opacity="0.6" d="M4.43133 4.93122C4.63882 2.82102 6.3932 1.21356 8.48878 1.21356H50.9024C53.3139 1.21356 55.1986 3.31997 54.9598 5.74833L50.9742 46.2823C50.7667 48.3925 49.0124 50 46.9168 50H4.50318C2.09165 50 0.206949 47.8936 0.445723 45.4652L4.43133 4.93122Z" fill="white"/>
<path d="M0 4.12621C0 1.84737 1.82555 0 4.07749 0H46.5314C48.7833 0 50.6089 1.84737 50.6089 4.12621V45.8738C50.6089 48.1526 48.7833 50 46.5314 50H4.07749C1.82556 50 0 48.1526 0 45.8738V4.12621Z" fill="white"/>
<path opacity="0.8" fill-rule="evenodd" clip-rule="evenodd" d="M33.0696 24.8014C33.0696 20.2844 29.5702 16.6654 25.3044 16.6654L25.3044 10.9224C32.6791 10.9224 38.6162 17.1599 38.6162 24.8014C38.6162 32.443 32.6791 38.6805 25.3044 38.6805L25.3044 32.9375C29.5702 32.9375 33.0696 29.3185 33.0696 24.8014Z" fill="#262146"/>
<path fill-rule="evenodd" clip-rule="evenodd" d="M19.7576 24.8014C19.7576 20.2844 16.2582 16.6654 11.9924 16.6654L11.9924 10.9224C19.3671 10.9224 25.3042 17.1599 25.3042 24.8014C25.3042 32.443 19.3671 38.6805 11.9924 38.6805L11.9924 32.9375C16.2582 32.9375 19.7576 29.3185 19.7576 24.8014Z" fill="#262146"/>
<path d="M25.3042 38.6805H11.9924V32.9656H25.3042V38.6805Z" fill="#514D6B"/>
<path d="M25.3042 16.6373H11.9924V10.9224H25.3042V16.6373Z" fill="#FF3E3E"/>
</svg>
